Coordinates
version=1
nRows=9
nColumns=24
inDegrees=yes

Units are S.I. units (second, meters, Newtons, ...)
Angles are in degrees.

endheader
time	pelvis_tilt	pelvis_list	pelvis_rotation	pelvis_tx	pelvis_ty	pelvis_tz	hip_flexion_r	hip_adduction_r	hip_rotation_r	knee_angle_r	ankle_angle_r	subtalar_angle_r	mtp_angle_r	hip_flexion_l	hip_adduction_l	hip_rotation_l	knee_angle_l	ankle_angle_l	subtalar_angle_l	mtp_angle_l	lumbar_extension	lumbar_bending	lumbar_rotation
      7.11000000	      3.19871072	     -4.21953675	     -0.36149472	     -0.15690579	      0.93908183	      0.24044283	      3.18704800	     10.68073258	     -0.07388117	    -10.69651042	     11.43857626	      1.79993018	      0.00000000	     12.58229184	     -5.86352808	     -7.28844026	    -57.80982710	      3.13268109	    -10.82237470	      0.00000000	    -19.27717799	      3.97750284	      3.17985130
      7.12000000	      2.98217105	     -3.97333474	     -0.43752451	     -0.14924168	      0.93957082	      0.24077170	      2.76103233	     10.45571050	      0.10648953	    -10.46596934	     11.71582846	      1.80198223	      0.00000000	     13.74023495	     -5.61077626	     -7.28892312	    -56.71192706	      4.08937688	    -11.41002377	      0.00000000	    -19.25290331	      3.59250280	      3.23547422
      7.13000000	      2.76405275	     -3.73973428	     -0.49445735	     -0.14163846	      0.93995536	      0.24104273	      2.35847956	     10.23996199	      0.26947030	    -10.26480532	     11.99101543	      1.78204604	      0.00000000	     14.81855944	     -5.35294639	     -7.27373727	    -55.33992128	      4.89529015	    -11.81113991	      0.00000000	    -19.22924846	      3.22925694	      3.25848542
      7.14000000	      2.52723065	     -3.51836996	     -0.53806964	     -0.13408677	      0.94020181	      0.24123661	      1.98930170	     10.03344751	      0.44600466	    -10.08013231	     12.27348121	      1.74684257	      0.00000000	     15.83471038	     -5.08702654	     -7.24886742	    -53.70658176	      5.53233800	    -12.06839129	      0.00000000	    -19.19042481	      2.89709431	      3.28056256
      7.15000000	      2.30186080	     -3.33153243	     -0.57227686	     -0.12655283	      0.94033858	      0.24135822	      1.62481972	      9.85821933	      0.60164920	     -9.92271741	     12.55262200	      1.70017923	      0.00000000	     16.74408662	     -4.84256910	     -7.22950872	    -51.80917690	      6.06173886	    -12.22053201	      0.00000000	    -19.15923835	      2.62032011	      3.28025864
      7.16000000	      2.08477712	     -3.18064922	     -0.60775628	     -0.11902447	      0.94035284	      0.24141201	      1.25806542	      9.71789225	      0.78069736	     -9.77735008	     12.84082405	      1.64299389	      0.00000000	     17.54888934	     -4.62106155	     -7.22199695	    -49.66250054	      6.47953866	    -12.27841884	      0.00000000	    -19.13437338	      2.40014433	      3.29194080
      7.17000000	      1.88228909	     -3.08636312	     -0.63217901	     -0.11146492	      0.94023318	      0.24138073	      0.88240566	      9.63080369	      0.90822505	     -9.64294474	     13.12279940	      1.59023685	      0.00000000	     18.24582819	     -4.44691554	     -7.22855802	    -47.28938572	      6.86364881	    -12.23983700	      0.00000000	    -19.11001502	      2.25942695	      3.27245661
      7.18000000	      1.70602547	     -3.02444311	     -0.67868394	     -0.10386441	      0.94001153	      0.24128248	      0.47110047	      9.57166514	      1.06770658	     -9.49964032	     13.45401945	      1.52668904	      0.00000000	     18.81273822	     -4.30585631	     -7.30241427	    -44.69480704	      7.15843400	    -12.03014457	      0.00000000	    -19.11097114	      2.18210153	      3.28285210
      7.19000000	      1.55327306	     -3.02240962	     -0.72341382	     -0.09619280	      0.93967602	      0.24111909	      0.02600230	      9.57008342	      1.21380123	     -9.34750042	     13.77728587	      1.47504084	      0.00000000	     19.26022451	     -4.21125493	     -7.38006533	    -41.90619556	      7.44222128	    -11.60634796	      0.00000000	    -19.11352508	      2.17687594	      3.29503729
